<svg xmlns="http://www.w3.org/2000/svg" viewBox="0 0 183.52 183.52"><defs><style>.cls-1{fill:#fff;}</style></defs><title>Ресурс 1blogogo</title><g id="Слой_2" data-name="Слой 2"><g id="Слой_1-2" data-name="Слой 1"><path class="cls-1" d="M183.52,91.07a18.53,18.53,0,0,0-.81-5.26,21.67,21.67,0,0,0-1.86-4.31c-3.85-6.88-11.68-13-22.37-18,2.83-8,4.16-15.46,3.81-21.81S160,30.14,156.16,26.39a19,19,0,0,0-6.35-4.1C142,19.14,131.19,20.13,119,24.62,111.61,9.28,101.8-.08,91.07,0A21.31,21.31,0,0,0,78,5C72.54,9.3,67.62,16.19,63.53,25a76.16,76.16,0,0,0-9.75-2.75c-11.73-2.43-21.44-1-27.39,5.08a21.13,21.13,0,0,0-5.65,12.35c-.94,7,.45,15.5,3.88,24.83A65.49,65.49,0,0,0,10,73.82C3.57,79.43,0,85.77,0,92.45a18.71,18.71,0,0,0,.81,5.26C3.41,106.33,12.16,114,25,120a65.53,65.53,0,0,0-3.76,16.88c-.6,8.53,1.32,15.57,6.08,20.27,6,5.95,15.78,7.27,27.47,4.66a76.28,76.28,0,0,0,9.71-2.9c4.3,9,9.44,15.89,15.11,20.08a23.2,23.2,0,0,0,8.17,4,18.63,18.63,0,0,0,4.62.57,21.22,21.22,0,0,0,12.86-4.85c5.55-4.29,10.54-11.24,14.67-20.19,7.8,2.74,15,4.07,21.23,3.84,6.58-.24,12-2.23,15.92-6.16,6.42-6.52,7.45-17.37,4-30.33q-.9-3.34-2.19-6.85C174.24,111.61,183.6,101.8,183.52,91.07ZM24.27,70.71q1.07-.76,2.22-1.49A121.19,121.19,0,0,0,32.37,81c2.07,3.66,4.38,7.38,6.94,11.11q-3.75,5.67-6.78,11.23a121,121,0,0,0-5.69,11.9C16.58,108.95,10.45,101,10.38,92.37a21.09,21.09,0,0,1,4.34-12.55A40,40,0,0,1,24.27,70.71ZM37.18,31.93c6.07-3.8,14.58-4.41,24.36-2.25a121.19,121.19,0,0,0-4.2,12.51C56.22,46.24,55.23,50.51,54.4,55q-6.67,1.35-12.73,3.15a120.9,120.9,0,0,0-12.44,4.39c-1.94-8.18-1.9-15.49.35-21.25a19.27,19.27,0,0,1,4.21-6.58A18.55,18.55,0,0,1,37.18,31.93Zm77.12-5.44a121.33,121.33,0,0,0-11.82,5.88c-3.66,2.07-7.37,4.38-11.11,6.94Q88,37.07,84.63,35.1c-1.5-.89-3-1.75-4.49-2.56a120.83,120.83,0,0,0-11.89-5.69c6.34-10.27,14.26-16.4,22.91-16.46a20.2,20.2,0,0,1,10.55,3C106.3,16.14,110.55,20.62,114.3,26.49Zm49.29,82.9A51.91,51.91,0,0,1,157,114.3a120.8,120.8,0,0,0-5.88-11.82c-.44-.78-.9-1.57-1.37-2.36q-2.56-4.34-5.58-8.76Q148,85.69,151,80.14a121,121,0,0,0,5.7-11.9C167,74.58,173.08,82.5,173.14,91.15a20,20,0,0,1-2.6,9.79A32.06,32.06,0,0,1,163.59,109.39Zm-132.72,35C28,138.53,27.74,130.77,29.68,122a120.94,120.94,0,0,0,12.51,4.2h0q6.08,1.69,12.77,3,1.35,6.67,3.15,12.73a121,121,0,0,0,4.39,12.44c-11.74,2.78-21.68,1.51-27.84-4.56A19,19,0,0,1,30.87,144.41Zm95.22-15.26a113,113,0,0,1-4.72,15.2h0a84.56,84.56,0,0,1-3.81,8.34,83.92,83.92,0,0,1-8.65-3.07h0a113.18,113.18,0,0,1-14.21-7.2c4.63-3.29,9.28-6.95,13.88-10.92,6.06-.54,11.92-1.33,17.5-2.36h0Zm-86.92-7.8h0a83.55,83.55,0,0,1-8.34-3.81,83.27,83.27,0,0,1,3.07-8.65h0c.35-.83.73-1.68,1.11-2.52,1.39-3.09,3-6.23,4.79-9.42.43-.75.85-1.51,1.3-2.26h0C44.38,99.33,48,104,52,108.58c.54,6.06,1.33,11.92,2.36,17.5A113,113,0,0,1,39.17,121.36ZM108,33.64h0a84,84,0,0,1,8.6-3.21,84.08,84.08,0,0,1,3.94,8.28h0a113.47,113.47,0,0,1,5,15.13c-5.6-.94-11.47-1.65-17.54-2.09-4.66-3.91-9.37-7.49-14-10.71A113,113,0,0,1,108,33.64Zm37.48,49.67c-.33.64-.66,1.27-1,1.91l-.12.22c-.62,1.13-1.26,2.26-1.94,3.39h0c-3.29-4.63-6.95-9.27-10.92-13.88-.53-6.06-1.33-11.92-2.36-17.5a113.36,113.36,0,0,1,15.21,4.73A83.89,83.89,0,0,1,152.7,66a83.09,83.09,0,0,1-3.07,8.65h0q-1.44,3.46-3.24,7C146.11,82.19,145.8,82.75,145.51,83.31ZM32.89,73.72q-1.43-3.48-2.46-6.82A83.91,83.91,0,0,1,38.72,63h0a113.5,113.5,0,0,1,15.13-5c-.94,5.6-1.65,11.47-2.09,17.54-3.91,4.66-7.49,9.37-10.71,14A113.26,113.26,0,0,1,33.64,75.5C33.38,74.9,33.14,74.31,32.89,73.72Zm30-10.41q-4.49,4.55-8.53,9.21A149.62,149.62,0,0,1,56.77,57.3,149.93,149.93,0,0,1,72,54.64Q67.37,58.76,62.88,63.31ZM51.7,104.61a150.08,150.08,0,0,1-9-12.48,149,149,0,0,1,8.86-12.61q-.33,6.16-.29,12.55T51.7,104.61Zm89.18-13.22h0A150,150,0,0,1,132,104c.22-4.1.32-8.29.29-12.55s-.2-8.44-.48-12.54A149.89,149.89,0,0,1,140.88,91.39ZM120.21,62.88q-4.55-4.48-9.21-8.53a150.31,150.31,0,0,1,15.22,2.42A150.05,150.05,0,0,1,128.88,72Q124.76,67.37,120.21,62.88ZM91.39,42.65A149.2,149.2,0,0,1,104,51.51c-4.11-.22-8.29-.32-12.55-.29s-8.44.2-12.54.48a150,150,0,0,1,12.48-9ZM64.82,119.12c-3.81-3.75-7.34-7.59-10.61-11.47-.5-5-.8-10.26-.84-15.6s.18-10.55.61-15.61c3.21-3.93,6.69-7.82,10.44-11.62S72,57.48,75.87,54.2c5-.5,10.26-.8,15.6-.84s10.56.18,15.61.6q3.91,3.2,7.76,6.75c1.29,1.2,2.59,2.42,3.87,3.69,3.81,3.75,7.34,7.59,10.61,11.47.5,5.05.8,10.26.84,15.6s-.18,10.55-.61,15.61c-3.21,3.93-6.69,7.82-10.43,11.63s-7.59,7.34-11.47,10.61c-5,.5-10.25.8-15.6.84s-10.55-.18-15.61-.6C72.51,126.34,68.62,122.87,64.82,119.12ZM92.07,132.3q6.39,0,12.55-.48a149.47,149.47,0,0,1-12.48,9.05A149.22,149.22,0,0,1,79.52,132C83.62,132.23,87.81,132.34,92.07,132.3ZM74.94,52c-6.06.54-11.92,1.33-17.51,2.36a113,113,0,0,1,4.73-15.2q1.62-4.11,3.49-7.73l.32-.61a83.75,83.75,0,0,1,8.65,3.07h0a113.59,113.59,0,0,1,14.2,7.2C84.2,44.38,79.55,48,74.94,52ZM57.3,126.75h0a149.72,149.72,0,0,1-2.66-15.18q4.12,4.58,8.67,9.08t9.21,8.53A150.14,150.14,0,0,1,57.3,126.75Zm69.46-.52a149.28,149.28,0,0,1-15.18,2.65q4.59-4.12,9.08-8.67t8.53-9.21a148.43,148.43,0,0,1-2.42,15.22Zm5-18.25c3.91-4.67,7.49-9.37,10.71-14A113.14,113.14,0,0,1,149.88,108h0a84.09,84.09,0,0,1,3.21,8.6,83.77,83.77,0,0,1-8.28,3.93h0a113.71,113.71,0,0,1-15.13,5C130.62,119.92,131.32,114,131.76,108Zm22.08-46.43a121.12,121.12,0,0,0-12.51-4.2q-6.08-1.68-12.77-2.95h0q-1.36-6.66-3.15-12.73h0A120.72,120.72,0,0,0,121,29.23c7.06-1.67,13.47-1.87,18.8-.45a20,20,0,0,1,9,5c5.6,5.51,7.27,14.21,5.58,24.6C154.28,59.42,154.08,60.47,153.84,61.54ZM75.5,149.88a83.79,83.79,0,0,1-8.6,3.21A83.82,83.82,0,0,1,63,144.81h0a113.15,113.15,0,0,1-5-15.13c5.6.94,11.47,1.65,17.54,2.09,4.67,3.91,9.37,7.49,14,10.71a113.28,113.28,0,0,1-14.09,7.41Zm46.48,4a121.06,121.06,0,0,0,4.2-12.51q1.69-6.08,2.95-12.77h0c4.44-.9,8.7-2,12.74-3.15h0A121.61,121.61,0,0,0,154.3,121c2.78,11.74,1.51,21.68-4.56,27.84-5.72,5.81-14.86,7.39-25.76,5.38Q123,154.07,122,153.84ZM69.23,157A120.79,120.79,0,0,0,81,151.15Q86,148.36,91,145l1.14-.76Q97.83,148,103.39,151a121.69,121.69,0,0,0,11.89,5.69c-6.34,10.27-14.26,16.39-22.91,16.46a18.78,18.78,0,0,1-5.39-.75C80.41,170.48,74.34,165.05,69.23,157Z"/><path class="cls-1" d="M63.21,107.56V69.77H78a12.51,12.51,0,0,1,8.41,3,9.73,9.73,0,0,1,3.51,7.83A9.11,9.11,0,0,1,86.62,88a9.26,9.26,0,0,1,4.64,8.52,10,10,0,0,1-3.59,8,12.8,12.8,0,0,1-8.62,3ZM78,84.57c1.92,0,3-1.11,3.27-3.35,0-2-1.08-3.06-3.27-3.35H71.83v6.7Zm1.05,14.9c2.16,0,3.35-1.21,3.59-3.64,0-2.08-1.19-3.3-3.59-3.61H71.83v7.25Z"/><path class="cls-1" d="M95.22,107.56V69.77H110a12.51,12.51,0,0,1,8.41,3,9.73,9.73,0,0,1,3.51,7.83,9.11,9.11,0,0,1-3.3,7.41,9.26,9.26,0,0,1,4.64,8.52,10,10,0,0,1-3.59,8,12.8,12.8,0,0,1-8.62,3Zm14.79-23c1.92,0,3-1.11,3.27-3.35,0-2-1.08-3.06-3.27-3.35h-6.17v6.7Zm1.05,14.9c2.16,0,3.35-1.21,3.59-3.64,0-2.08-1.19-3.3-3.59-3.61h-7.22v7.25Z"/></g></g></svg>